<?xml version="1.0" encoding="utf-8"?>
<!-- Generator: Adobe Illustrator 23.0.3, SVG Export Plug-In . SVG Version: 6.00 Build 0)  -->
<svg version="1.1" id="Layer_1" xmlns="http://www.w3.org/2000/svg" xmlns:xlink="http://www.w3.org/1999/xlink" x="0px" y="0px"
	 viewBox="0 0 360 70.9" style="enable-background:new 0 0 360 70.9;" xml:space="preserve">
<style type="text/css">
	.st0{fill:#93C259;}
	.st1{fill:none;stroke:#000000;stroke-miterlimit:10;}
	.st2{fill:none;stroke:#000000;stroke-width:0.5;stroke-miterlimit:10;}
	.st3{enable-background:new    ;}
</style>
<g>
	<g>
		<path class="st0" d="M84.9,37c0,15.5-12.6,28.1-28.1,28.1S28.7,52.5,28.7,37c0-4.3,1-8.4,2.7-12h50.8C83.9,28.6,84.9,32.7,84.9,37
			z"/>
		<circle class="st1" cx="54" cy="34.3" r="28.2"/>
		<line class="st2" x1="28.6" y1="22.3" x2="79.2" y2="22.3"/>
	</g>
	<g class="st3">
		<path d="M103.5,45.2l3.7-1.7c1.9,5,5.5,7.4,10.5,7.4c5.2,0,8.7-2.2,8.7-6.1c0-3.7-2-5.5-9.3-7.8c-7.7-2.4-12.3-4.5-12.3-10.9
			c0-5.7,4.9-9.8,11.9-9.8s11.2,3.6,13.1,8.3l-3.5,1.9c-2-4.5-5.2-6.3-9.6-6.3c-4.7,0-7.5,2.3-7.5,5.5c0,4,2.5,5.3,9.8,7.6
			c7.5,2.3,11.9,4.8,11.9,11.1c0,6.1-5.4,10.3-13.2,10.3C110.5,54.8,105.5,51,103.5,45.2z"/>
		<path d="M142,41.3V17.1h4.4v23.6c0,6,2.9,10.1,9.4,10.1s9.3-4,9.3-10V17.1h4.4v24.1c0,7.7-4.6,13.6-13.7,13.6
			C146.2,54.8,142,49,142,41.3z"/>
		<path d="M183.2,54.1v-37h4.7l19.5,29.3h0.1V17.1h4.1v37h-4L187.4,24h-0.1v30.1H183.2z"/>
		<path d="M225.6,54.1v-37h22.2v4H230V33h13.1v4H230v17.1H225.6z"/>
		<path d="M259.6,54.1v-37h4.4v37H259.6z"/>
		<path d="M278.6,54.1v-37h4.4v33h17.8v4H278.6z"/>
		<path d="M312,54.1v-37h4.4v33h17.8v4H312z"/>
	</g>
</g>
</svg>
